<svg id="Layer_1" data-name="Layer 1" xmlns="http://www.w3.org/2000/svg" xmlns:xlink="http://www.w3.org/1999/xlink" viewBox="0 0 48 40"><defs><linearGradient id="linear-gradient" x1="24" y1="-3.89" x2="24" y2="50.34" gradientUnits="userSpaceOnUse"><stop offset="0" stop-color="#9e9e9e"/><stop offset="1" stop-color="#424242"/></linearGradient><linearGradient id="linear-gradient-2" x1="24" y1="-3.38" x2="24" y2="43.63" xlink:href="#linear-gradient"/><linearGradient id="linear-gradient-4" x1="4" y1="-3.37" x2="4" y2="43.63" xlink:href="#linear-gradient"/><linearGradient id="linear-gradient-5" x1="14" y1="-3.37" x2="14" y2="43.63" xlink:href="#linear-gradient"/><linearGradient id="linear-gradient-6" x1="34" y1="-3.38" x2="34" y2="43.63" xlink:href="#linear-gradient"/><linearGradient id="linear-gradient-7" x1="44" y1="-3.38" x2="44" y2="43.63" xlink:href="#linear-gradient"/></defs><title>fragdenstaat-logo</title><polygon points="5 17 24 28 43 17 36 17 24 24 12 17 5 17" style="fill:#1d61dc"/><polygon points="46 14 24 0 2 14 9 15 24 5 39 15 46 14" style="fill:url(#linear-gradient)"/><rect y="13" width="48" height="4" style="fill:url(#linear-gradient-2)"/><rect y="36" width="48" height="4" style="fill:url(#linear-gradient-2)"/><rect x="2" y="16" width="4" height="21" style="fill:url(#linear-gradient-4)"/><rect x="12" y="16" width="4" height="21" style="fill:url(#linear-gradient-5)"/><rect x="32" y="16" width="4" height="21" style="fill:url(#linear-gradient-6)"/><rect x="42" y="16" width="4" height="21" style="fill:url(#linear-gradient-7)"/><path d="M71,1" transform="translate(0 -4)" style="stroke:#000;stroke-miterlimit:10;stroke-width:0.5px"/><path d="M1,1" transform="translate(0 -4)" style="stroke:#000;stroke-miterlimit:10;stroke-width:0.5px"/><path d="M71,9" transform="translate(0 -4)" style="stroke:#000;stroke-miterlimit:10;stroke-width:0.5px"/><path d="M1,9" transform="translate(0 -4)" style="stroke:#000;stroke-miterlimit:10;stroke-width:0.5px"/></svg>